Hanif_Deep_7_5_grf.mot
version=1
nRows=37
nColumns=19
inDegrees=yes
endheader
time	right_ground_force_vx	right_ground_force_vy	right_ground_force_vz	right_ground_force_px	right_ground_force_py	right_ground_force_pz	right_ground_torque_x	right_ground_torque_y	right_ground_torque_z	left_ground_force_vx	left_ground_force_vy	left_ground_force_vz	left_ground_force_px	left_ground_force_py	left_ground_force_pz	left_ground_torque_x	left_ground_torque_y	left_ground_torque_z
6.200000	-4.699460	306.109000	64.813200	0.207526	0.000000	-1.437270	-21.058900	0.466282	2.574320	3.287100	284.213000	-60.630800	0.181694	0.000000	-0.996356	26.485400	-5.522610	-4.327020
6.205000	-4.909730	304.753000	64.715200	0.207445	0.000000	-1.437330	-20.949100	0.456502	2.539750	3.585150	283.217000	-60.768800	0.181407	0.000000	-0.997282	26.651600	-5.460270	-4.409090
6.210000	-4.896430	305.402000	64.389900	0.207997	0.000000	-1.437530	-20.934900	0.552920	2.738200	3.479330	284.214000	-61.088100	0.181770	0.000000	-0.997610	26.840700	-5.424020	-4.325540
6.215000	-4.978590	305.822000	64.206600	0.208262	0.000000	-1.437140	-21.079100	0.431096	2.800390	3.361660	283.363000	-61.277100	0.182479	0.000000	-0.997430	26.709700	-5.467270	-4.083290
6.220000	-5.148920	306.221000	63.554600	0.208075	0.000000	-1.436890	-21.183900	0.420138	2.740440	3.363380	285.490000	-61.563500	0.182232	0.000000	-0.996613	26.678200	-5.439710	-4.203350
6.225000	-5.160150	302.892000	63.635000	0.208594	0.000000	-1.436540	-21.062000	0.403022	2.878030	2.898710	284.060000	-61.413300	0.182747	0.000000	-0.997798	26.886900	-5.399020	-4.022040
6.230000	-5.494760	303.891000	63.305700	0.209130	0.000000	-1.436310	-21.201200	0.318908	3.041240	2.688250	285.281000	-61.292600	0.182493	0.000000	-0.997424	26.899500	-5.344520	-4.131290
6.235000	-5.612170	303.948000	62.440700	0.209152	0.000000	-1.436260	-21.221200	0.297196	3.040700	2.674540	285.134000	-61.166200	0.182749	0.000000	-0.997034	26.773900	-5.401040	-4.040390
6.240000	-5.717170	302.712000	62.828700	0.210036	0.000000	-1.436510	-21.058100	0.223195	3.297640	2.179510	286.422000	-60.698300	0.183268	0.000000	-0.998373	27.285400	-5.362620	-3.915390
6.245000	-5.272300	303.120000	62.162600	0.209988	0.000000	-1.434650	-21.649200	0.247537	3.282860	2.269960	285.524000	-60.413500	0.184322	0.000000	-0.997725	27.013300	-5.313990	-3.597880
6.250000	-5.398980	304.421000	61.984100	0.210146	0.000000	-1.435530	-21.473000	0.216083	3.338270	2.157640	284.789000	-59.928000	0.184313	0.000000	-0.997877	26.988400	-5.298140	-3.593430
6.255000	-4.949560	303.965000	62.001500	0.210858	0.000000	-1.434510	-21.751000	0.268204	3.564600	2.044400	283.538000	-60.204600	0.184678	0.000000	-0.998388	27.016200	-5.278880	-3.460850
6.260000	-4.574200	305.144000	61.418700	0.210931	0.000000	-1.434980	-21.691000	0.234147	3.583020	2.405400	285.445000	-60.121300	0.184423	0.000000	-0.998232	27.148800	-5.270490	-3.581860
6.265000	-4.949340	305.359000	61.135200	0.210752	0.000000	-1.434280	-21.918900	0.126041	3.511020	2.800240	283.623000	-60.477700	0.184132	0.000000	-0.998825	27.137700	-5.336990	-3.624380
6.270000	-4.730290	303.562000	60.701200	0.211357	0.000000	-1.434790	-21.634400	0.163670	3.685590	3.128410	286.124000	-60.242200	0.185243	0.000000	-0.997891	27.105600	-5.290090	-3.358240
6.275000	-4.328340	303.969000	60.898100	0.211623	0.000000	-1.434350	-21.795900	0.077840	3.752610	3.197400	284.723000	-60.623400	0.185319	0.000000	-0.998243	27.071100	-5.367150	-3.291710
6.280000	-5.142670	305.961000	60.478500	0.211683	0.000000	-1.434250	-21.971400	0.049296	3.796750	3.012260	285.003000	-60.314800	0.185508	0.000000	-0.997470	26.881200	-5.236670	-3.267190
6.285000	-5.206250	307.068000	60.599800	0.212402	0.000000	-1.434310	-22.034800	0.059361	4.041910	2.934620	283.348000	-59.964400	0.185960	0.000000	-0.999345	27.257100	-5.196290	-3.116430
6.290000	-5.097320	305.737000	60.686000	0.212478	0.000000	-1.433110	-22.302300	-0.055026	4.028010	2.453570	282.443000	-60.222800	0.185394	0.000000	-0.999125	27.114300	-5.209460	-3.252400
6.295000	-4.928920	307.282000	61.048800	0.213308	0.000000	-1.433070	-22.428600	-0.064636	4.309150	2.275750	283.422000	-60.637500	0.186091	0.000000	-0.998438	27.016100	-5.170360	-3.062720
6.300000	-5.229410	306.703000	61.197700	0.213362	0.000000	-1.433420	-22.278400	-0.145164	4.308060	2.966530	284.370000	-60.580300	0.186750	0.000000	-0.998258	27.045800	-5.165820	-2.898650
6.305000	-5.087000	307.126000	61.653000	0.213701	0.000000	-1.433880	-22.167000	-0.111315	4.428840	2.157360	284.840000	-60.803300	0.186318	0.000000	-0.998764	27.246500	-5.111470	-3.027650
6.310000	-4.961060	306.063000	61.411800	0.213906	0.000000	-1.433320	-22.260300	-0.158220	4.468110	2.327110	285.573000	-60.798500	0.187643	0.000000	-0.997823	27.046300	-4.982980	-2.674800
6.315000	-4.840900	305.876000	61.703500	0.213111	0.000000	-1.432960	-22.356000	-0.225164	4.199370	1.918660	284.990000	-61.091200	0.186530	0.000000	-0.998869	27.294100	-5.092120	-2.963160
6.320000	-5.205120	305.005000	61.335700	0.213983	0.000000	-1.432710	-22.373000	-0.170123	4.479940	1.178110	284.531000	-60.776800	0.186975	0.000000	-0.998793	27.239000	-5.034650	-2.823680
6.325000	-5.337740	303.208000	61.234600	0.214164	0.000000	-1.432790	-22.217200	-0.236172	4.501180	1.381520	285.661000	-61.251700	0.186654	0.000000	-0.998735	27.328100	-5.044880	-2.934380
6.330000	-5.267800	305.583000	61.079400	0.213982	0.000000	-1.433070	-22.304300	-0.239237	4.472380	1.735680	287.198000	-60.941000	0.186959	0.000000	-0.998148	27.302000	-4.979920	-2.892260
6.335000	-5.172030	304.148000	60.943600	0.214428	0.000000	-1.432300	-22.431100	-0.371320	4.566300	1.658440	286.129000	-61.240300	0.186332	0.000000	-0.997683	27.067800	-5.072440	-3.037860
6.340000	-5.776370	305.370000	60.961200	0.213551	0.000000	-1.432490	-22.466500	-0.289133	4.330050	1.930630	286.663000	-61.014100	0.186448	0.000000	-0.998751	27.420100	-5.181560	-2.997450
6.345000	-5.345460	304.997000	60.674600	0.213742	0.000000	-1.432220	-22.521500	-0.237266	4.388280	2.316120	288.862000	-61.258800	0.185934	0.000000	-0.998412	27.528800	-5.082060	-3.215030
6.350000	-5.609410	302.391000	60.278200	0.213936	0.000000	-1.432770	-22.162500	-0.272848	4.409080	2.368340	286.749000	-61.585800	0.185411	0.000000	-0.998036	27.218100	-5.138610	-3.321180
6.355000	-5.508820	302.594000	59.766400	0.213723	0.000000	-1.432490	-22.260300	-0.343237	4.326680	2.609180	288.960000	-61.371900	0.185622	0.000000	-0.998281	27.495400	-5.236260	-3.282820
6.360000	-6.068280	301.941000	59.455200	0.214492	0.000000	-1.432830	-22.112800	-0.359476	4.561940	2.314470	288.842000	-61.109500	0.185137	0.000000	-0.998594	27.579000	-5.177970	-3.436660
6.365000	-6.021410	299.473000	59.333900	0.214394	0.000000	-1.431740	-22.258300	-0.391146	4.490910	2.316960	290.433000	-60.852100	0.185455	0.000000	-0.997805	27.501800	-5.217770	-3.362720
6.370000	-6.011890	300.489000	58.894900	0.214381	0.000000	-1.432400	-22.135200	-0.377440	4.499990	1.934800	289.813000	-60.647300	0.185097	0.000000	-0.997940	27.487100	-5.251960	-3.447620
6.375000	-6.263980	299.303000	58.169100	0.214338	0.000000	-1.431920	-22.192500	-0.407443	4.464510	1.328130	290.053000	-60.344900	0.184324	0.000000	-0.998083	27.559900	-5.244430	-3.678790
6.380000	-6.618090	298.019000	57.722500	0.214212	0.000000	-1.431270	-22.289100	-0.446357	4.403640	0.743976	288.218000	-60.117200	0.184186	0.000000	-0.998553	27.529100	-5.255000	-3.674850
